<?xml version="1.0" encoding="UTF-8"?>
<svg id="Layer_1" data-name="Layer 1" xmlns="http://www.w3.org/2000/svg" viewBox="0 0 840 180">
  <defs>
    <style>
      .cls-1 {
        letter-spacing: 0em;
      }

      .cls-2 {
        letter-spacing: 0em;
      }

      .cls-3, .cls-4 {
        fill: #53cf81;
      }

      .cls-5 {
        letter-spacing: 0em;
      }

      .cls-4 {
        font-family: MomoTrustDisplay-Regular, 'Momo Trust Display';
        font-size: 128.38px;
      }

      .cls-6 {
        letter-spacing: 0em;
      }

      .cls-7 {
        letter-spacing: -.02em;
      }

      .cls-8 {
        letter-spacing: 0em;
      }

      .cls-9 {
        letter-spacing: 0em;
      }

      .cls-10 {
        letter-spacing: 0em;
      }
    </style>
  </defs>
  <text class="cls-4" transform="translate(222.8 165.05)"><tspan class="cls-2" x="0" y="0">H</tspan><tspan class="cls-7" x="97.05" y="0">a</tspan><tspan class="cls-1" x="178.58" y="0">r</tspan><tspan class="cls-9" x="233.52" y="0">b</tspan><tspan class="cls-10" x="320.17" y="0">o</tspan><tspan class="cls-6" x="403.87" y="0">o</tspan><tspan class="cls-5" x="488.09" y="0">s</tspan><tspan class="cls-8" x="554.2" y="0">t</tspan></text>
  <g>
    <path class="cls-3" d="M6.67,14.74c0,50.1,0,100.2,0,150.31,31.41.07,62.81.14,94.22.21-.83-16.78-5.02-54.88-31.09-93.28C48.03,39.92,21.21,22.7,6.67,14.74Z"/>
    <path class="cls-3" d="M156.99,14.74v150.31c-12.53,0-25.05,0-37.58,0-3.03-28.16-14.23-91.9-65.63-134.21-7.76-6.39-15.71-11.69-23.6-16.1,28.44,7.78,47.82,16.13,60.95,22.86,4.83,2.48,12.77,6.77,19.19,3.6,9.11-4.49,9.22-21.08,9.09-26.46h37.58Z"/>
  </g>
</svg>